<svg height="20" viewBox="0 0 20 20" width="20" xmlns="http://www.w3.org/2000/svg"><path d="m11 16c1.1045695 0 2 .8954305 2 2s-.8954305 2-2 2-2-.8954305-2-2 .8954305-2 2-2zm-6.25876055-3c1.38071188 0 2.5 1.1192881 2.5 2.5s-1.11928812 2.5-2.5 2.5c-1.38071187 0-2.5-1.1192881-2.5-2.5s1.11928813-2.5 2.5-2.5zm11.57808915.5c1.1045695 0 2 .8954305 2 2s-.8954305 2-2 2-2-.8954305-2-2 .8954305-2 2-2zm2.1806714-4.18145901c.8284271 0 1.5.67157288 1.5 1.50000001 0 .8284271-.6715729 1.5-1.5 1.5s-1.5-.6715729-1.5-1.5c0-.82842713.6715729-1.50000001 1.5-1.50000001zm-16-3.31854099c1.38071187 0 2.5 1.11928813 2.5 2.5s-1.11928813 2.5-2.5 2.5-2.5-1.11928813-2.5-2.5 1.11928813-2.5 2.5-2.5zm15.2857894-.79275266c.5522847 0 1 .44771525 1 1s-.4477153 1-1 1c-.5522848 0-1-.44771525-1-1s.4477152-1 1-1zm-9.7857894-5.20724734c1.65685425 0 3 1.34314575 3 3s-1.34314575 3-3 3-3-1.34314575-3-3 1.34314575-3 3-3zm7.5 3c.2761424 0 .5.22385763.5.5s-.2238576.5-.5.5-.5-.22385763-.5-.5.2238576-.5.5-.5z" fill="#555" fill-rule="evenodd"/></svg>