<svg id="visual" viewBox="0 0 960 540" width="960" height="540" xmlns="http://www.w3.org/2000/svg" xmlns:xlink="http://www.w3.org/1999/xlink" version="1.1">
<path class="wave1" d="M0 454L74 454L74 448L148 448L148 466L222 466L222 462L295 462L295 458L369 458L369 464L443 464L443 461L517 461L517 458L591 458L591 445L665 445L665 450L738 450L738 450L812 450L812 446L886 446L886 464L960 464L960 452L960 541L960 541L886 541L886 541L812 541L812 541L738 541L738 541L665 541L665 541L591 541L591 541L517 541L517 541L443 541L443 541L369 541L369 541L295 541L295 541L222 541L222 541L148 541L148 541L74 541L74 541L0 541Z" fill="#9900ff"></path>
<path class="#wave2" d="M0 464L74 464L74 480L148 480L148 475L222 475L222 462L295 462L295 477L369 477L369 473L443 473L443 466L517 466L517 475L591 475L591 461L665 461L665 478L738 478L738 476L812 476L812 477L886 477L886 476L960 476L960 483L960 541L960 541L886 541L886 541L812 541L812 541L738 541L738 541L665 541L665 541L591 541L591 541L517 541L517 541L443 541L443 541L369 541L369 541L295 541L295 541L222 541L222 541L148 541L148 541L74 541L74 541L0 541Z" fill="#8b00e8"></path>
<path class="wave3" d="M0 483L74 483L74 473L148 473L148 474L222 474L222 480L295 480L295 482L369 482L369 492L443 492L443 486L517 486L517 486L591 486L591 492L665 492L665 490L738 490L738 488L812 488L812 480L886 480L886 477L960 477L960 474L960 541L960 541L886 541L886 541L812 541L812 541L738 541L738 541L665 541L665 541L591 541L591 541L517 541L517 541L443 541L443 541L369 541L369 541L295 541L295 541L222 541L222 541L148 541L148 541L74 541L74 541L0 541Z" fill="#7e00d1"></path>
<path class="wave4" d="M0 501L74 501L74 493L148 493L148 507L222 507L222 495L295 495L295 502L369 502L369 505L443 505L443 501L517 501L517 506L591 506L591 494L665 494L665 494L738 494L738 496L812 496L812 491L886 491L886 501L960 501L960 495L960 541L960 541L886 541L886 541L812 541L812 541L738 541L738 541L665 541L665 541L591 541L591 541L517 541L517 541L443 541L443 541L369 541L369 541L295 541L295 541L222 541L222 541L148 541L148 541L74 541L74 541L0 541Z" fill="#7000bb"></path>
<path class="wave5" d="M0 513L74 513L74 516L148 516L148 505L222 505L222 510L295 510L295 516L369 516L369 519L443 519L443 512L517 512L517 514L591 514L591 511L665 511L665 515L738 515L738 504L812 504L812 509L886 509L886 510L960 510L960 513L960 541L960 541L886 541L886 541L812 541L812 541L738 541L738 541L665 541L665 541L591 541L591 541L517 541L517 541L443 541L443 541L369 541L369 541L295 541L295 541L222 541L222 541L148 541L148 541L74 541L74 541L0 541Z" fill="#6300a5"></path>
<path class="wave6" d="M0 525L74 525L74 524L148 524L148 527L222 527L222 518L295 518L295 521L369 521L369 528L443 528L443 519L517 519L517 529L591 529L591 528L665 528L665 522L738 522L738 529L812 529L812 520L886 520L886 529L960 529L960 527L960 541L960 541L886 541L886 541L812 541L812 541L738 541L738 541L665 541L665 541L591 541L591 541L517 541L517 541L443 541L443 541L369 541L369 541L295 541L295 541L222 541L222 541L148 541L148 541L74 541L74 541L0 541Z" fill="#560090"></path>
 <g class="rect">
    <rect width="85" height="30" fill="dodgerblue" />
    <text x="10" y="19" font-size="14">SVG &lt;rect&gt;</text>
  </g>
</svg>